Coordinates
version=1
nRows=15
nColumns=34
inDegrees=yes

Units are S.I. units (second, meters, Newtons, ...)
If the header above contains a line with 'inDegrees', this indicates whether rotational values are in degrees (yes) or radians (no).

endheader
time	pelvis_tilt	pelvis_list	pelvis_rotation	pelvis_tx	pelvis_ty	pelvis_tz	hip_flexion_r	hip_adduction_r	hip_rotation_r	knee_angle_r	ankle_angle_r	subtalar_angle_r	mtp_angle_r	hip_flexion_l	hip_adduction_l	hip_rotation_l	knee_angle_l	ankle_angle_l	subtalar_angle_l	mtp_angle_l	lumbar_extension	lumbar_bending	lumbar_rotation	arm_flex_r	arm_add_r	arm_rot_r	elbow_flex_r	pro_sup_r	arm_flex_l	arm_add_l	arm_rot_l	elbow_flex_l	pro_sup_l
      2.63333330	    -23.40552708	      5.57599529	     -7.71482192	      0.70339538	      0.80579617	      0.02003612	     61.59732897	     -6.91766034	     -3.64665151	     51.14947503	     11.66754328	    -19.51762189	      0.00000000	     59.88157114	     -8.06161518	     -5.80039062	     50.12713322	      2.40553492	    -28.24552570	      0.00000000	    -20.38262033	      0.95657850	      8.87232915	    153.53225314	    -18.59237989	     71.62702961	     63.50001872	     76.65335770	    139.36597482	    -41.44087471	     39.15591522	     38.73681547	     82.33420704
      2.65000000	    -22.24019014	      5.77226366	     -8.40430069	      0.71363855	      0.83517652	      0.02036109	     55.71306406	     -7.03419375	     -4.87542682	     43.66424286	      8.88482379	    -17.53674588	      0.00000000	     53.92246390	     -7.44933661	     -6.93982702	     42.75561766	     -1.50918120	    -28.35313480	      0.00000000	    -18.85482061	      1.02412223	      7.33530925	    154.22480674	    -20.39664506	     75.82983310	     57.63948392	     74.48494588	    144.69854741	    -46.97506050	     50.78858947	     33.44442067	     84.83516337
      2.66666670	    -20.79242091	      5.78129969	     -8.85027899	      0.72659446	      0.86247713	      0.02778031	     49.22224034	     -7.07988735	     -6.73545929	     35.82806291	      6.53613863	    -14.45008648	      0.00000000	     47.35083172	     -6.94067912	     -8.16208870	     34.89485827	     -4.88693325	    -26.53980247	      0.00000000	    -17.21578788	      0.72208442	      6.01640294	    153.91915090	    -22.67608768	     78.03296967	     51.39711484	     73.29972670	    147.98589971	    -50.53674776	     54.91729626	     28.51222532	     85.24776561
      2.68333330	    -19.55312808	      5.97790853	     -8.82164334	      0.73541277	      0.88733556	      0.03133443	     43.10071597	     -7.38384166	     -8.93440402	     28.07315824	      3.05043441	    -11.37986012	      0.00000000	     41.02530780	     -6.02963283	     -9.61395639	     26.72587055	     -8.27597531	    -23.36289204	      0.00000000	    -15.20814502	      0.19371584	      5.46612519	    154.29718322	    -26.26155659	     81.32450831	     45.19877749	     69.65722882	    152.74827570	    -53.23534236	     72.38448032	     21.95191185	     86.82711357
      2.70000000	    -18.82794966	      5.64393307	     -8.45891376	      0.75139971	      0.91317243	      0.03960159	     36.92231112	     -6.95913646	    -12.20891496	     20.15716483	      1.25984428	     -5.18811749	      0.00000000	     35.13169137	     -5.79591699	    -11.28110236	     18.52119845	    -10.45108086	    -17.03626420	      0.00000000	    -11.81568850	     -0.00974343	      4.90730740	    152.01974545	    -30.65920059	     81.35817613	     38.91528974	     67.76525931	    153.06303941	    -55.59207171	     78.65512398	     17.74453743	     86.42393391
      2.71666670	    -18.21147382	      5.45580071	     -7.92312464	      0.75899775	      0.94296519	      0.04396788	     31.63180758	     -6.48505196	    -15.27886994	     12.86574982	     -1.96435186	      0.69566654	      0.00000000	     29.74432763	     -5.33620817	    -13.24460442	     10.77267757	    -13.71720665	     -9.59255494	      0.00000000	     -8.87499761	     -0.39376243	      4.44153782	    150.47916353	    -35.90477810	     80.89879273	     32.44978998	     65.39576243	    153.43379491	    -58.09845899	     88.63283366	     12.83302058	     86.63160162
      2.73333330	    -17.60210182	      5.66855544	     -7.32892067	      0.76496934	      0.96309650	      0.04538294	     27.37742471	     -6.41971602	    -17.67816870	      6.74054496	     -6.40669763	      6.38316479	      0.00000000	     25.77209137	     -4.59378736	    -15.16313316	      4.44676392	    -20.41033969	     -4.87373679	      0.00000000	     -6.83438474	     -1.75705651	      3.29297537	    150.24954401	    -43.16932073	     81.47166397	     27.77144628	     60.54134455	    158.85448783	    -60.79627251	    107.42115788	      8.78260486	     86.50881495
      2.75000000	    -17.36724131	      5.61752994	     -6.45352902	      0.77230028	      0.99130887	      0.04489320	     23.91460221	     -6.16603892	    -20.86654028	      1.12531277	    -13.62966040	     11.05841805	      0.00000000	     23.39934667	     -4.25326440	    -16.36008120	      0.00000000	    -27.45434871	      1.16003306	      0.00000000	     -4.64714495	     -2.24338442	      3.19149425	    152.04164941	    -51.71766705	     81.29737551	     23.21199235	     60.12157139	    161.06511628	    -66.15564321	    108.16408599	      7.20527085	     86.24671178
      2.76666670	    -17.97640177	      5.61863416	     -5.73840635	      0.77163763	      1.01558804	      0.04537214	     23.53978537	     -6.34416368	    -23.28115060	      0.00000000	    -20.79039305	     13.18405315	      0.00000000	     23.86763624	     -4.48073545	    -16.81509778	      0.00000000	    -33.51457546	      4.41358198	      0.00000000	     -2.88503797	     -2.69030928	      3.23645893	    160.68014729	    -62.10684288	     91.15215104	     22.85417283	     61.23365519	    170.49129078	    -72.75214692	    114.35061588	      6.60686070	     87.86845820
      2.78333330	    -18.18589213	      5.85808614	     -5.56567960	      0.76353360	      1.05308318	      0.04467027	     22.75538435	     -6.59195900	    -24.49885135	      0.00000000	    -27.88631804	     14.84247147	      0.00000000	     23.25719487	     -4.29844922	    -17.07868439	      0.00000000	    -39.49514315	      6.32989872	      0.00000000	     -1.46981681	     -3.67272075	      3.56718049	    169.77408927	    -73.98212510	     98.60376671	     26.94330032	     63.40141014	    178.99430592	    -77.98508640	    117.17342711	      1.01773271	     89.82600378
      2.80000000	    -18.64752766	      5.76916583	     -5.49262188	      0.76298085	      1.07387695	      0.04717363	     21.67768853	     -6.18273857	    -24.66958388	      0.00000000	    -33.75640874	     15.29098152	      0.00000000	     22.21414365	     -4.49395845	    -16.48317499	      0.00000000	    -45.40344015	      7.02402789	      0.00000000	     -3.06997412	     -3.05278511	     22.29131320	    257.57976806	    -46.01428526	    216.63363123	     43.91159834	     43.52661241	    280.70644852	   -109.46716080	    212.20582650	      0.00000000	    109.17542004
      2.81666670	    -18.58397232	      5.64043183	     -5.47917239	      0.76361695	      1.09225967	      0.04691797	     19.80892351	     -5.86765802	    -23.17431353	      0.00000000	    -39.43464009	     15.35939973	      0.00000000	     20.60269724	     -4.50114672	    -15.13816367	      0.00000000	    -50.00000000	      8.19561779	      0.00000000	     -3.94461080	     -1.85466268	     23.85523235	    265.98642272	    -33.93748920	    233.48003244	     52.75219911	     47.89590302	    247.64488960	   -106.13413447	    183.85391001	      0.00000000	     93.23267535
      2.83333330	    -18.62678406	      5.35446530	     -5.73088163	      0.76906877	      1.11352107	      0.04504378	     18.03569537	     -5.33922478	    -20.51109536	      0.00000000	    -44.17821741	     14.73613349	      0.00000000	     18.79448910	     -4.68870350	    -14.14271420	      0.00000000	    -50.00000000	     10.73829724	      0.00000000	     -5.58664324	     -0.54641501	     17.88600631	    273.97067175	    -31.37362969	    242.48090676	     57.88117689	     53.90480474	    169.33050567	   -107.31910721	    125.16604571	      0.03563956	     67.06776018
      2.85000000	    -18.77682354	      5.03187881	     -5.83876901	      0.76916028	      1.13051358	      0.04578753	     16.70824314	     -4.99801607	    -18.49113091	      0.00000000	    -47.15116899	     15.20999032	      0.00000000	     18.07622170	     -5.07996190	    -13.02577278	      1.14655997	    -50.00000000	     11.75454467	      0.00000000	     -5.24944171	      0.53643314	     16.10193277	    279.41489257	    -23.53980750	    255.89215841	     57.41677797	     56.18163582	    157.39692103	   -118.50316736	    118.40098338	      0.00000000	     66.27455022
      2.86666670	    -18.44599448	      4.79775051	     -6.29468477	      0.77270835	      1.14821907	      0.04568158	     15.43426511	     -4.82409381	    -16.24612134	      0.00000000	    -47.82568314	     14.95632140	      0.00000000	     16.62823163	     -5.41624918	    -12.67685169	      1.50126577	    -50.00000000	     12.68718205	      0.00000000	     -6.03816669	     -1.26063563	      6.30514872	    293.66515459	    -30.88491162	    266.32574683	     48.20022898	     61.13611472	    134.79408103	   -144.53480830	     82.31400128	     21.44037226	     61.32950730
